<mxfile host="app.diagrams.net" modified="2023-04-27T09:33:14.857Z" agent="Mozilla/5.0 (Windows NT 10.0; Win64; x64) AppleWebKit/537.36 (KHTML, like Gecko) Chrome/112.0.0.0 Safari/537.36" version="21.2.1" etag="ZjCElso51w3GRhTLsT5d" type="github">
  <diagram name="Page-1" id="beBOsvgpBfVTo7l7IsJw">
    <mxGraphModel>
      <root>
        <mxCell id="0" />
        <mxCell id="1" parent="0" />
      </root>
    </mxGraphModel>
  </diagram>
</mxfile>
